# xmcd
#
# Track frame offsets: 
#        150
#        14292
#        23736
#        36199
#        49228
#        61234
#        72837
#        84024
#        95576
#        105306
#        116656
#        127616
#
# Disc length: 1847 seconds
#
# Revision: 2
# Processed by: cddbd v1.5.2PL0 Copyright (c) Steve Scherf et al.
# Submitted via: ExactAudioCopy v1.1
#
DISCID=8907350c
DTITLE=Various Artist - Christmas on the Range
DYEAR=2006
DGENRE=Christmas
TTITLE0=Gene Autry - Rudolph the Red-Nosed Reindeer
TTITLE1=Brenda Lee - Rockin' Around the Christmas Tree
TTITLE2=Ernest Tubb - Blue Christmas
TTITLE3=Margaret Whiting and Jimmy Wakely - Silver Bells
TTITLE4=The Jordanaires - The First Noël
TTITLE5=Gene Autry - Up on the Housetop
TTITLE6=Eddy Arnold - C-H-R-I-S-T-M-A-S
TTITLE7=Tex Ritter - Christmas Carols by the Old Corral
TTITLE8=Ernest Tubb (with the Beasley Sisters) - Merry Texas Christmas
TTITLE8=, You All!
TTITLE9=Bob Wills and His Texas Playboys - When It's Christmas on the Ra
TTITLE9=nge
TTITLE10=Roy Rogers and Dale Evans (with Foy Willing and the Riders of the
TTITLE10=Purple Sage) - Wonderful Christmas Night
TTITLE11=Gene Autry and Rosemary Clooney - Look Out the Window
EXTD=
EXTT0=
EXTT1=
EXTT2=
EXTT3=
EXTT4=
EXTT5=
EXTT6=
EXTT7=
EXTT8=
EXTT9=
EXTT10=
EXTT11=
PLAYORDER=
